<?xml version="1.0" encoding="UTF-8" standalone="no"?>
<svg xmlns:xlink="http://www.w3.org/1999/xlink" focusable="true" height="454.0" id="workspace" preserveAspectRatio="xMinYMin" viewBox="-457.0 -224.0 799.0 454.0" width="799.0">
<path d="M-283,138 C-292,138 -303,174 -312,174" fill="#495879" fill-opacity="1" stroke="#495879" stroke-opacity="1" stroke-width="1px" style="fill:none " visibility="visible"/>
<path d="M-283,138 C-292,138 -303,149 -312,149" fill="#495879" fill-opacity="1" stroke="#495879" stroke-opacity="1" stroke-width="1px" style="fill:none " visibility="visible"/>
<path d="M-283,138 C-292,138 -303,124 -312,124" fill="#495879" fill-opacity="1" stroke="#495879" stroke-opacity="1" stroke-width="1px" style="fill:none " visibility="visible"/>
<path d="M-283,138 C-292,138 -303,99 -312,99" fill="#495879" fill-opacity="1" stroke="#495879" stroke-opacity="1" stroke-width="1px" style="fill:none " visibility="visible"/>
<path d="M-207,126 C-216,126 -227,137 -236,137" fill="#495879" fill-opacity="1" stroke="#495879" stroke-opacity="1" stroke-width="1px" style="fill:none " visibility="visible"/>
<path d="M-207,126 C-216,126 -227,74 -236,74" fill="#495879" fill-opacity="1" stroke="#495879" stroke-opacity="1" stroke-width="1px" style="fill:none " visibility="visible"/>
<path d="M0,0 C-36,0 -72,126 -108,126 -72,129 -36,5 0,7 Z" fill="#495879" fill-opacity="1" stroke="#495879" stroke-opacity="1" stroke-width="1px" style="fill:#495879 " visibility="visible"/>
<path d="M-183,51 C-192,51 -203,51 -212,51" fill="#495879" fill-opacity="1" stroke="#495879" stroke-opacity="1" stroke-width="1px" style="fill:none " visibility="visible"/>
<path d="M0,0 C-36,0 -72,51 -108,51 -72,54 -36,5 0,7 Z" fill="#495879" fill-opacity="1" stroke="#495879" stroke-opacity="1" stroke-width="1px" style="fill:#495879 " visibility="visible"/>
<path d="M-185,22 C-194,22 -205,22 -214,22" fill="#495879" fill-opacity="1" stroke="#495879" stroke-opacity="1" stroke-width="1px" style="fill:none " visibility="visible"/>
<path d="M0,0 C-36,0 -72,22 -108,22 -72,25 -36,5 0,7 Z" fill="#495879" fill-opacity="1" stroke="#495879" stroke-opacity="1" stroke-width="1px" style="fill:#495879 " visibility="visible"/>
<path d="M-184,-7 C-193,-7 -204,-6 -213,-6" fill="#495879" fill-opacity="1" stroke="#495879" stroke-opacity="1" stroke-width="1px" style="fill:none " visibility="visible"/>
<path d="M0,0 C-36,0 -72,-7 -108,-7 -72,-4 -36,5 0,7 Z" fill="#495879" fill-opacity="1" stroke="#495879" stroke-opacity="1" stroke-width="1px" style="fill:#495879 " visibility="visible"/>
<path d="M-302,-50 C-311,-50 -322,-24 -331,-24" fill="#495879" fill-opacity="1" stroke="#495879" stroke-opacity="1" stroke-width="1px" style="fill:none " visibility="visible"/>
<path d="M-302,-50 C-311,-50 -321,-50 -330,-50" fill="#495879" fill-opacity="1" stroke="#495879" stroke-opacity="1" stroke-width="1px" style="fill:none " visibility="visible"/>
<path d="M-302,-50 C-311,-50 -321,-76 -330,-76" fill="#495879" fill-opacity="1" stroke="#495879" stroke-opacity="1" stroke-width="1px" style="fill:none " visibility="visible"/>
<path d="M-178,-50 C-187,-50 -198,-50 -207,-50" fill="#495879" fill-opacity="1" stroke="#495879" stroke-opacity="1" stroke-width="1px" style="fill:none " visibility="visible"/>
<path d="M0,0 C-36,0 -72,-50 -108,-50 -72,-47 -36,5 0,7 Z" fill="#495879" fill-opacity="1" stroke="#495879" stroke-opacity="1" stroke-width="1px" style="fill:#495879 " visibility="visible"/>
<path d="M164,48 C173,48 184,59 193,59" fill="#495879" fill-opacity="1" stroke="#495879" stroke-opacity="1" stroke-width="1px" style="fill:none " visibility="visible"/>
<path d="M164,48 C173,48 183,33 192,33" fill="#495879" fill-opacity="1" stroke="#495879" stroke-opacity="1" stroke-width="1px" style="fill:none " visibility="visible"/>
<path d="M0,0 C36,0 73,48 109,48 73,51 36,5 0,7 Z" fill="#495879" fill-opacity="1" stroke="#495879" stroke-opacity="1" stroke-width="1px" style="fill:#495879 " visibility="visible"/>
<path d="M-200,-133 C-209,-133 -220,-109 -229,-109" fill="#495879" fill-opacity="1" stroke="#495879" stroke-opacity="1" stroke-width="1px" style="fill:none " visibility="visible"/>
<path d="M-200,-133 C-209,-133 -220,-134 -229,-134" fill="#495879" fill-opacity="1" stroke="#495879" stroke-opacity="1" stroke-width="1px" style="fill:none " visibility="visible"/>
<path d="M-200,-133 C-209,-133 -220,-159 -229,-159" fill="#495879" fill-opacity="1" stroke="#495879" stroke-opacity="1" stroke-width="1px" style="fill:none " visibility="visible"/>
<path d="M0,0 C-36,0 -72,-133 -108,-133 -72,-130 -36,5 0,7 Z" fill="#495879" fill-opacity="1" stroke="#495879" stroke-opacity="1" stroke-width="1px" style="fill:#495879 " visibility="visible"/>
<path d="M224,-17 C233,-17 243,8 252,8" fill="#495879" fill-opacity="1" stroke="#495879" stroke-opacity="1" stroke-width="1px" style="fill:none " visibility="visible"/>
<path d="M224,-17 C233,-17 243,-18 252,-18" fill="#495879" fill-opacity="1" stroke="#495879" stroke-opacity="1" stroke-width="1px" style="fill:none " visibility="visible"/>
<path d="M224,-17 C233,-17 244,-44 253,-44" fill="#495879" fill-opacity="1" stroke="#495879" stroke-opacity="1" stroke-width="1px" style="fill:none " visibility="visible"/>
<path d="M0,0 C36,0 73,-17 109,-17 73,-14 36,5 0,7 Z" fill="#495879" fill-opacity="1" stroke="#495879" stroke-opacity="1" stroke-width="1px" style="fill:#495879 " visibility="visible"/>
<rect fill="#CC0033" fill-opacity="0.4" height="6" rx="0" ry="0" stroke="#FF9933" stroke-opacity="0.4" stroke-width="1px" visibility="hidden" width="50" x="5" y="5"/>
<path fill-opacity="0.4" stroke="#CC0033" stroke-opacity="0.4" stroke-width="1px" style="fill:none " visibility="hidden"/>
<path fill-opacity="0.4" stroke="#CC0033" stroke-opacity="0.4" stroke-width="1px" style="fill:none " visibility="hidden"/>
<rect fill="#CC0033" fill-opacity="0.4" height="6" rx="0" ry="0" stroke="#FF9933" stroke-opacity="0.4" stroke-width="1px" visibility="hidden" width="50" x="5" y="5"/>
<g focusable="true" height="100" preserveAspectRatio="none" transform="translate(-78,-19) scale(1,1)" visibility="visible" width="100">
<rect fill="rgb(244,184,45)" fill-opacity="1" height="44" rx="6.6" ry="6.6" stroke="rgb(241,163,39)" stroke-opacity="1" stroke-width="1px" style="cursor: default;" width="161" x="-2" y="-3"/>
<rect fill="rgb(224, 102, 102)" height="38" rx="5.7" ry="5.7" stroke="rgb(102, 0, 0)" stroke-width="2px" style="cursor: default;" width="157" x="0" y="0"/>
<text fill="#ffffff" font-family="verdana" font-size="13.4375" font-style="normal" font-weight="bold" style="cursor: default;" visibility="visible" x="11" y="11">
<tspan dy="1em" x="11">SIG fundamentos</tspan>
</text>
<g focusable="true" height="16" preserveAspectRatio="none" transform="translate(0,11) scale(0,0.16)" width="0"/>
</g>
<g focusable="true" height="100" preserveAspectRatio="none" transform="translate(109,-35) scale(1,1)" visibility="visible" width="100">
<rect fill="rgb(252,235,192)" fill-opacity="0" height="24" rx="3.5999999999999996" ry="3.5999999999999996" stroke="rgb(241,163,39)" stroke-opacity="0" stroke-width="1px" width="118" x="-2" y="-3"/>
<line stroke="#495879" stroke-opacity="1" stroke-width="1px" style="cursor: move;" x1="0" x2="114" y1="18" y2="18"/>
<text fill="rgb(82,92,97)" font-family="verdana" font-size="10.75" font-style="normal" font-weight="normal" style="cursor: move;" visibility="visible" x="3" y="3">
<tspan dy="1em" x="3">Técnicas y formatos</tspan>
</text>
<ellipse cx="117" cy="18" fill="rgb(224,229,239)" height="6" rx="3" ry="3" stroke="rgb(2,59,185)" stroke-width="1px" style="cursor: default;" visibility="visible" width="6"/>
<g focusable="true" height="12" preserveAspectRatio="none" transform="translate(0,3) scale(0,0.12)" width="0"/>
</g>
<g focusable="true" height="100" preserveAspectRatio="none" transform="translate(253,-59) scale(1,1)" visibility="visible" width="100">
<rect fill="rgb(252,235,192)" fill-opacity="0" height="21" rx="3.15" ry="3.15" stroke="rgb(241,163,39)" stroke-opacity="0" stroke-width="1px" width="30" x="-2" y="-3"/>
<line stroke="#495879" stroke-opacity="1" stroke-width="1px" style="cursor: move;" x1="0" x2="26" y1="15" y2="15"/>
<text fill="rgb(82,92,97)" font-family="verdana" font-size="8.0625" font-style="normal" font-weight="normal" style="cursor: move;" visibility="visible" x="3" y="3">
<tspan dy="1em" x="3">GPS</tspan>
</text>
<ellipse cx="3" cy="3" fill="rgb(224,229,239)" height="6" rx="3" ry="3" stroke="rgb(2,59,185)" stroke-width="1px" style="cursor: default;" visibility="hidden" width="6"/>
<g focusable="true" height="9" preserveAspectRatio="none" transform="translate(0,3) scale(0,0.09)" width="0"/>
</g>
<g focusable="true" height="100" preserveAspectRatio="none" transform="translate(252,-33) scale(1,1)" visibility="visible" width="100">
<rect fill="rgb(252,235,192)" fill-opacity="0" height="21" rx="3.15" ry="3.15" stroke="rgb(241,163,39)" stroke-opacity="0" stroke-width="1px" width="40" x="-2" y="-3"/>
<line stroke="#495879" stroke-opacity="1" stroke-width="1px" style="cursor: move;" x1="0" x2="36" y1="15" y2="15"/>
<text fill="rgb(82,92,97)" font-family="verdana" font-size="8.0625" font-style="normal" font-weight="normal" style="cursor: move;" visibility="visible" x="3" y="3">
<tspan dy="1em" x="3">LIDAR</tspan>
</text>
<ellipse cx="3" cy="3" fill="rgb(224,229,239)" height="6" rx="3" ry="3" stroke="rgb(2,59,185)" stroke-width="1px" style="cursor: default;" visibility="hidden" width="6"/>
<g focusable="true" height="9" preserveAspectRatio="none" transform="translate(0,3) scale(0,0.09)" width="0"/>
</g>
<g focusable="true" height="100" preserveAspectRatio="none" transform="translate(252,-7) scale(1,1)" visibility="visible" width="100">
<rect fill="rgb(252,235,192)" fill-opacity="0" height="21" rx="3.15" ry="3.15" stroke="rgb(241,163,39)" stroke-opacity="0" stroke-width="1px" width="29" x="-2" y="-3"/>
<line stroke="#495879" stroke-opacity="1" stroke-width="1px" style="cursor: move;" x1="0" x2="25" y1="15" y2="15"/>
<text fill="rgb(82,92,97)" font-family="verdana" font-size="8.0625" font-style="normal" font-weight="normal" style="cursor: move;" visibility="visible" x="3" y="3">
<tspan dy="1em" x="3">IDE</tspan>
</text>
<ellipse cx="3" cy="3" fill="rgb(224,229,239)" height="6" rx="3" ry="3" stroke="rgb(2,59,185)" stroke-width="1px" style="cursor: default;" visibility="hidden" width="6"/>
<g focusable="true" height="9" preserveAspectRatio="none" transform="translate(0,3) scale(0,0.09)" width="0"/>
</g>
<g focusable="true" height="100" preserveAspectRatio="none" transform="translate(-199,-151) scale(1,1)" visibility="visible" width="100">
<rect fill="rgb(252,235,192)" fill-opacity="0" height="24" rx="3.5999999999999996" ry="3.5999999999999996" stroke="rgb(241,163,39)" stroke-opacity="0" stroke-width="1px" width="95" x="-2" y="-3"/>
<line stroke="#495879" stroke-opacity="1" stroke-width="1px" style="cursor: move;" x1="0" x2="91" y1="18" y2="18"/>
<text fill="rgb(82,92,97)" font-family="verdana" font-size="10.75" font-style="normal" font-weight="normal" style="cursor: move;" visibility="visible" x="3" y="3">
<tspan dy="1em" x="3">Funcionalidades</tspan>
</text>
<ellipse cx="-3" cy="18" fill="rgb(224,229,239)" height="6" rx="3" ry="3" stroke="rgb(2,59,185)" stroke-width="1px" style="cursor: default;" visibility="visible" width="6"/>
<g focusable="true" height="12" preserveAspectRatio="none" transform="translate(0,3) scale(0,0.12)" width="0"/>
</g>
<g focusable="true" height="100" preserveAspectRatio="none" transform="translate(-307,-174) scale(1,1)" visibility="visible" width="100">
<rect fill="rgb(252,235,192)" fill-opacity="0" height="21" rx="3.15" ry="3.15" stroke="rgb(241,163,39)" stroke-opacity="0" stroke-width="1px" width="82" x="-2" y="-3"/>
<line stroke="#495879" stroke-opacity="1" stroke-width="1px" style="cursor: move;" x1="0" x2="78" y1="15" y2="15"/>
<text fill="rgb(82,92,97)" font-family="verdana" font-size="8.0625" font-style="normal" font-weight="normal" style="cursor: move;" visibility="visible" x="3" y="3">
<tspan dy="1em" x="3">Gestión de datos</tspan>
</text>
<ellipse cx="3" cy="3" fill="rgb(224,229,239)" height="6" rx="3" ry="3" stroke="rgb(2,59,185)" stroke-width="1px" style="cursor: default;" visibility="hidden" width="6"/>
<g focusable="true" height="9" preserveAspectRatio="none" transform="translate(0,3) scale(0,0.09)" width="0"/>
</g>
<g focusable="true" height="100" preserveAspectRatio="none" transform="translate(-308,-149) scale(1,1)" visibility="visible" width="100">
<rect fill="rgb(252,235,192)" fill-opacity="0" height="21" rx="3.15" ry="3.15" stroke="rgb(241,163,39)" stroke-opacity="0" stroke-width="1px" width="83" x="-2" y="-3"/>
<line stroke="#495879" stroke-opacity="1" stroke-width="1px" style="cursor: move;" x1="0" x2="79" y1="15" y2="15"/>
<text fill="rgb(82,92,97)" font-family="verdana" font-size="8.0625" font-style="normal" font-weight="normal" style="cursor: move;" visibility="visible" x="3" y="3">
<tspan dy="1em" x="3">Análisis de datos</tspan>
</text>
<ellipse cx="3" cy="3" fill="rgb(224,229,239)" height="6" rx="3" ry="3" stroke="rgb(2,59,185)" stroke-width="1px" style="cursor: default;" visibility="hidden" width="6"/>
<g focusable="true" height="9" preserveAspectRatio="none" transform="translate(0,3) scale(0,0.09)" width="0"/>
</g>
<g focusable="true" height="100" preserveAspectRatio="none" transform="translate(-328,-124) scale(1,1)" visibility="visible" width="100">
<rect fill="rgb(252,235,192)" fill-opacity="0" height="21" rx="3.15" ry="3.15" stroke="rgb(241,163,39)" stroke-opacity="0" stroke-width="1px" width="103" x="-2" y="-3"/>
<line stroke="#495879" stroke-opacity="1" stroke-width="1px" style="cursor: move;" x1="0" x2="99" y1="15" y2="15"/>
<text fill="rgb(82,92,97)" font-family="verdana" font-size="8.0625" font-style="normal" font-weight="normal" style="cursor: move;" visibility="visible" x="3" y="3">
<tspan dy="1em" x="3">Presentación de datos</tspan>
</text>
<ellipse cx="3" cy="3" fill="rgb(224,229,239)" height="6" rx="3" ry="3" stroke="rgb(2,59,185)" stroke-width="1px" style="cursor: default;" visibility="hidden" width="6"/>
<g focusable="true" height="9" preserveAspectRatio="none" transform="translate(0,3) scale(0,0.09)" width="0"/>
</g>
<g focusable="true" height="100" preserveAspectRatio="none" transform="translate(109,30) scale(1,1)" visibility="visible" width="100">
<rect fill="rgb(252,235,192)" fill-opacity="0" height="24" rx="3.5999999999999996" ry="3.5999999999999996" stroke="rgb(241,163,39)" stroke-opacity="0" stroke-width="1px" width="58" x="-2" y="-3"/>
<line stroke="#495879" stroke-opacity="1" stroke-width="1px" style="cursor: move;" x1="0" x2="54" y1="18" y2="18"/>
<text fill="rgb(82,92,97)" font-family="verdana" font-size="10.75" font-style="normal" font-weight="normal" style="cursor: move;" visibility="visible" x="3" y="3">
<tspan dy="1em" x="3">Software</tspan>
</text>
<ellipse cx="57" cy="18" fill="rgb(224,229,239)" height="6" rx="3" ry="3" stroke="rgb(2,59,185)" stroke-width="1px" style="cursor: default;" visibility="visible" width="6"/>
<g focusable="true" height="12" preserveAspectRatio="none" transform="translate(0,3) scale(0,0.12)" width="0"/>
</g>
<g focusable="true" height="100" preserveAspectRatio="none" transform="translate(192,18) scale(1,1)" visibility="visible" width="100">
<rect fill="rgb(252,235,192)" fill-opacity="0" height="21" rx="3.15" ry="3.15" stroke="rgb(241,163,39)" stroke-opacity="0" stroke-width="1px" width="49" x="-2" y="-3"/>
<line stroke="#495879" stroke-opacity="1" stroke-width="1px" style="cursor: move;" x1="0" x2="45" y1="15" y2="15"/>
<text fill="rgb(82,92,97)" font-family="verdana" font-size="8.0625" font-style="normal" font-weight="normal" style="cursor: move;" visibility="visible" x="3" y="3">
<tspan dy="1em" x="3">Privativo</tspan>
</text>
<ellipse cx="3" cy="3" fill="rgb(224,229,239)" height="6" rx="3" ry="3" stroke="rgb(2,59,185)" stroke-width="1px" style="cursor: default;" visibility="hidden" width="6"/>
<g focusable="true" height="9" preserveAspectRatio="none" transform="translate(0,3) scale(0,0.09)" width="0"/>
</g>
<g focusable="true" height="100" preserveAspectRatio="none" transform="translate(193,44) scale(1,1)" visibility="visible" width="100">
<rect fill="rgb(252,235,192)" fill-opacity="0" height="21" rx="3.15" ry="3.15" stroke="rgb(241,163,39)" stroke-opacity="0" stroke-width="1px" width="33" x="-2" y="-3"/>
<line stroke="#495879" stroke-opacity="1" stroke-width="1px" style="cursor: move;" x1="0" x2="29" y1="15" y2="15"/>
<text fill="rgb(82,92,97)" font-family="verdana" font-size="8.0625" font-style="normal" font-weight="normal" style="cursor: move;" visibility="visible" x="3" y="3">
<tspan dy="1em" x="3">Libre</tspan>
</text>
<ellipse cx="3" cy="3" fill="rgb(224,229,239)" height="6" rx="3" ry="3" stroke="rgb(2,59,185)" stroke-width="1px" style="cursor: default;" visibility="hidden" width="6"/>
<g focusable="true" height="9" preserveAspectRatio="none" transform="translate(0,3) scale(0,0.09)" width="0"/>
</g>
<g focusable="true" height="100" preserveAspectRatio="none" transform="translate(-177,-68) scale(1,1)" visibility="visible" width="100">
<rect fill="rgb(252,235,192)" fill-opacity="0" height="24" rx="3.5999999999999996" ry="3.5999999999999996" stroke="rgb(241,163,39)" stroke-opacity="0" stroke-width="1px" width="73" x="-2" y="-3"/>
<line stroke="#495879" stroke-opacity="1" stroke-width="1px" style="cursor: move;" x1="0" x2="69" y1="18" y2="18"/>
<text fill="rgb(82,92,97)" font-family="verdana" font-size="10.75" font-style="normal" font-weight="normal" style="cursor: move;" visibility="visible" x="3" y="3">
<tspan dy="1em" x="3">Informativo</tspan>
</text>
<ellipse cx="-3" cy="18" fill="rgb(224,229,239)" height="6" rx="3" ry="3" stroke="rgb(2,59,185)" stroke-width="1px" style="cursor: default;" visibility="visible" width="6"/>
<g focusable="true" height="12" preserveAspectRatio="none" transform="translate(0,3) scale(0,0.12)" width="0"/>
</g>
<g focusable="true" height="100" preserveAspectRatio="none" transform="translate(-301,-65) scale(1,1)" visibility="visible" width="100">
<rect fill="rgb(252,235,192)" fill-opacity="0" height="21" rx="3.15" ry="3.15" stroke="rgb(241,163,39)" stroke-opacity="0" stroke-width="1px" width="98" x="-2" y="-3"/>
<line stroke="#495879" stroke-opacity="1" stroke-width="1px" style="cursor: move;" x1="0" x2="94" y1="15" y2="15"/>
<text fill="rgb(82,92,97)" font-family="verdana" font-size="8.0625" font-style="normal" font-weight="normal" style="cursor: move;" visibility="visible" x="3" y="3">
<tspan dy="1em" x="3">Datos y visualización</tspan>
</text>
<ellipse cx="-3" cy="15" fill="rgb(224,229,239)" height="6" rx="3" ry="3" stroke="rgb(2,59,185)" stroke-width="1px" style="cursor: default;" visibility="visible" width="6"/>
<g focusable="true" height="9" preserveAspectRatio="none" transform="translate(0,3) scale(0,0.09)" width="0"/>
</g>
<g focusable="true" height="100" preserveAspectRatio="none" transform="translate(-377,-91) scale(1,1)" visibility="visible" width="100">
<rect fill="rgb(252,235,192)" fill-opacity="0" height="21" rx="3.15" ry="3.15" stroke="rgb(241,163,39)" stroke-opacity="0" stroke-width="1px" width="51" x="-2" y="-3"/>
<line stroke="#495879" stroke-opacity="1" stroke-width="1px" style="cursor: move;" x1="0" x2="47" y1="15" y2="15"/>
<text fill="rgb(82,92,97)" font-family="verdana" font-size="8.0625" font-style="normal" font-weight="normal" style="cursor: move;" visibility="visible" x="3" y="3">
<tspan dy="1em" x="3">Temático</tspan>
</text>
<ellipse cx="3" cy="3" fill="rgb(224,229,239)" height="6" rx="3" ry="3" stroke="rgb(2,59,185)" stroke-width="1px" style="cursor: default;" visibility="hidden" width="6"/>
<g focusable="true" height="9" preserveAspectRatio="none" transform="translate(0,3) scale(0,0.09)" width="0"/>
</g>
<g focusable="true" height="100" preserveAspectRatio="none" transform="translate(-407,-65) scale(1,1)" visibility="visible" width="100">
<rect fill="rgb(252,235,192)" fill-opacity="0" height="21" rx="3.15" ry="3.15" stroke="rgb(241,163,39)" stroke-opacity="0" stroke-width="1px" width="81" x="-2" y="-3"/>
<line stroke="#495879" stroke-opacity="1" stroke-width="1px" style="cursor: move;" x1="0" x2="77" y1="15" y2="15"/>
<text fill="rgb(82,92,97)" font-family="verdana" font-size="8.0625" font-style="normal" font-weight="normal" style="cursor: move;" visibility="visible" x="3" y="3">
<tspan dy="1em" x="3">Aspecto espacial</tspan>
</text>
<ellipse cx="3" cy="3" fill="rgb(224,229,239)" height="6" rx="3" ry="3" stroke="rgb(2,59,185)" stroke-width="1px" style="cursor: default;" visibility="hidden" width="6"/>
<g focusable="true" height="9" preserveAspectRatio="none" transform="translate(0,3) scale(0,0.09)" width="0"/>
</g>
<g focusable="true" height="100" preserveAspectRatio="none" transform="translate(-402,-39) scale(1,1)" visibility="visible" width="100">
<rect fill="rgb(252,235,192)" fill-opacity="0" height="21" rx="3.15" ry="3.15" stroke="rgb(241,163,39)" stroke-opacity="0" stroke-width="1px" width="75" x="-2" y="-3"/>
<line stroke="#495879" stroke-opacity="1" stroke-width="1px" style="cursor: move;" x1="0" x2="71" y1="15" y2="15"/>
<text fill="rgb(82,92,97)" font-family="verdana" font-size="8.0625" font-style="normal" font-weight="normal" style="cursor: move;" visibility="visible" x="3" y="3">
<tspan dy="1em" x="3">Clave temporal</tspan>
</text>
<ellipse cx="3" cy="3" fill="rgb(224,229,239)" height="6" rx="3" ry="3" stroke="rgb(2,59,185)" stroke-width="1px" style="cursor: default;" visibility="hidden" width="6"/>
<g focusable="true" height="9" preserveAspectRatio="none" transform="translate(0,3) scale(0,0.09)" width="0"/>
</g>
<g focusable="true" height="100" preserveAspectRatio="none" transform="translate(-183,-25) scale(1,1)" visibility="visible" width="100">
<rect fill="rgb(252,235,192)" fill-opacity="0" height="24" rx="3.5999999999999996" ry="3.5999999999999996" stroke="rgb(241,163,39)" stroke-opacity="0" stroke-width="1px" width="79" x="-2" y="-3"/>
<line stroke="#495879" stroke-opacity="1" stroke-width="1px" style="cursor: move;" x1="0" x2="75" y1="18" y2="18"/>
<text fill="rgb(82,92,97)" font-family="verdana" font-size="10.75" font-style="normal" font-weight="normal" style="cursor: move;" visibility="visible" x="3" y="3">
<tspan dy="1em" x="3">Instrumental</tspan>
</text>
<ellipse cx="-3" cy="18" fill="rgb(224,229,239)" height="6" rx="3" ry="3" stroke="rgb(2,59,185)" stroke-width="1px" style="cursor: default;" visibility="visible" width="6"/>
<g focusable="true" height="12" preserveAspectRatio="none" transform="translate(0,3) scale(0,0.12)" width="0"/>
</g>
<g focusable="true" height="100" preserveAspectRatio="none" transform="translate(-305,-21) scale(1,1)" visibility="visible" width="100">
<rect fill="rgb(252,235,192)" fill-opacity="0" height="21" rx="3.15" ry="3.15" stroke="rgb(241,163,39)" stroke-opacity="0" stroke-width="1px" width="96" x="-2" y="-3"/>
<line stroke="#495879" stroke-opacity="1" stroke-width="1px" style="cursor: move;" x1="0" x2="92" y1="15" y2="15"/>
<text fill="rgb(82,92,97)" font-family="verdana" font-size="8.0625" font-style="normal" font-weight="normal" style="cursor: move;" visibility="visible" x="3" y="3">
<tspan dy="1em" x="3">Integración /medios</tspan>
</text>
<ellipse cx="3" cy="3" fill="rgb(224,229,239)" height="6" rx="3" ry="3" stroke="rgb(2,59,185)" stroke-width="1px" style="cursor: default;" visibility="hidden" width="6"/>
<g focusable="true" height="9" preserveAspectRatio="none" transform="translate(0,3) scale(0,0.09)" width="0"/>
</g>
<g focusable="true" height="100" preserveAspectRatio="none" transform="translate(-184,4) scale(1,1)" visibility="visible" width="100">
<rect fill="rgb(252,235,192)" fill-opacity="0" height="24" rx="3.5999999999999996" ry="3.5999999999999996" stroke="rgb(241,163,39)" stroke-opacity="0" stroke-width="1px" width="80" x="-2" y="-3"/>
<line stroke="#495879" stroke-opacity="1" stroke-width="1px" style="cursor: move;" x1="0" x2="76" y1="18" y2="18"/>
<text fill="rgb(82,92,97)" font-family="verdana" font-size="10.75" font-style="normal" font-weight="normal" style="cursor: move;" visibility="visible" x="3" y="3">
<tspan dy="1em" x="3">Metodológico</tspan>
</text>
<ellipse cx="-3" cy="18" fill="rgb(224,229,239)" height="6" rx="3" ry="3" stroke="rgb(2,59,185)" stroke-width="1px" style="cursor: default;" visibility="visible" width="6"/>
<g focusable="true" height="12" preserveAspectRatio="none" transform="translate(0,3) scale(0,0.12)" width="0"/>
</g>
<g focusable="true" height="100" preserveAspectRatio="none" transform="translate(-328,7) scale(1,1)" visibility="visible" width="100">
<rect fill="rgb(252,235,192)" fill-opacity="0" height="21" rx="3.15" ry="3.15" stroke="rgb(241,163,39)" stroke-opacity="0" stroke-width="1px" width="118" x="-2" y="-3"/>
<line stroke="#495879" stroke-opacity="1" stroke-width="1px" style="cursor: move;" x1="0" x2="114" y1="15" y2="15"/>
<text fill="rgb(82,92,97)" font-family="verdana" font-size="8.0625" font-style="normal" font-weight="normal" style="cursor: move;" visibility="visible" x="3" y="3">
<tspan dy="1em" x="3">Análisis de la información</tspan>
</text>
<ellipse cx="3" cy="3" fill="rgb(224,229,239)" height="6" rx="3" ry="3" stroke="rgb(2,59,185)" stroke-width="1px" style="cursor: default;" visibility="hidden" width="6"/>
<g focusable="true" height="9" preserveAspectRatio="none" transform="translate(0,3) scale(0,0.09)" width="0"/>
</g>
<g focusable="true" height="100" preserveAspectRatio="none" transform="translate(-182,33) scale(1,1)" visibility="visible" width="100">
<rect fill="rgb(252,235,192)" fill-opacity="0" height="24" rx="3.5999999999999996" ry="3.5999999999999996" stroke="rgb(241,163,39)" stroke-opacity="0" stroke-width="1px" width="78" x="-2" y="-3"/>
<line stroke="#495879" stroke-opacity="1" stroke-width="1px" style="cursor: move;" x1="0" x2="74" y1="18" y2="18"/>
<text fill="rgb(82,92,97)" font-family="verdana" font-size="10.75" font-style="normal" font-weight="normal" style="cursor: move;" visibility="visible" x="3" y="3">
<tspan dy="1em" x="3">Organizativo</tspan>
</text>
<ellipse cx="-3" cy="18" fill="rgb(224,229,239)" height="6" rx="3" ry="3" stroke="rgb(2,59,185)" stroke-width="1px" style="cursor: default;" visibility="visible" width="6"/>
<g focusable="true" height="12" preserveAspectRatio="none" transform="translate(0,3) scale(0,0.12)" width="0"/>
</g>
<g focusable="true" height="100" preserveAspectRatio="none" transform="translate(-257,36) scale(1,1)" visibility="visible" width="100">
<rect fill="rgb(252,235,192)" fill-opacity="0" height="21" rx="3.15" ry="3.15" stroke="rgb(241,163,39)" stroke-opacity="0" stroke-width="1px" width="49" x="-2" y="-3"/>
<line stroke="#495879" stroke-opacity="1" stroke-width="1px" style="cursor: move;" x1="0" x2="45" y1="15" y2="15"/>
<text fill="rgb(82,92,97)" font-family="verdana" font-size="8.0625" font-style="normal" font-weight="normal" style="cursor: move;" visibility="visible" x="3" y="3">
<tspan dy="1em" x="3">Liveware</tspan>
</text>
<ellipse cx="3" cy="3" fill="rgb(224,229,239)" height="6" rx="3" ry="3" stroke="rgb(2,59,185)" stroke-width="1px" style="cursor: default;" visibility="hidden" width="6"/>
<g focusable="true" height="9" preserveAspectRatio="none" transform="translate(0,3) scale(0,0.09)" width="0"/>
</g>
<g focusable="true" height="100" preserveAspectRatio="none" transform="translate(-206,108) scale(1,1)" visibility="visible" width="100">
<rect fill="rgb(252,235,192)" fill-opacity="0" height="24" rx="3.5999999999999996" ry="3.5999999999999996" stroke="rgb(241,163,39)" stroke-opacity="0" stroke-width="1px" width="102" x="-2" y="-3"/>
<line stroke="#495879" stroke-opacity="1" stroke-width="1px" style="cursor: move;" x1="0" x2="98" y1="18" y2="18"/>
<text fill="rgb(82,92,97)" font-family="verdana" font-size="10.75" font-style="normal" font-weight="normal" style="cursor: move;" visibility="visible" x="3" y="3">
<tspan dy="1em" x="3">Modelos digitales</tspan>
</text>
<ellipse cx="-3" cy="18" fill="rgb(224,229,239)" height="6" rx="3" ry="3" stroke="rgb(2,59,185)" stroke-width="1px" style="cursor: default;" visibility="visible" width="6"/>
<g focusable="true" height="12" preserveAspectRatio="none" transform="translate(0,3) scale(0,0.12)" width="0"/>
</g>
<g focusable="true" height="100" preserveAspectRatio="none" transform="translate(-272,59) scale(1,1)" visibility="visible" width="100">
<rect fill="rgb(252,235,192)" fill-opacity="0" height="21" rx="3.15" ry="3.15" stroke="rgb(241,163,39)" stroke-opacity="0" stroke-width="1px" width="40" x="-2" y="-3"/>
<line stroke="#495879" stroke-opacity="1" stroke-width="1px" style="cursor: move;" x1="0" x2="36" y1="15" y2="15"/>
<text fill="rgb(82,92,97)" font-family="verdana" font-size="8.0625" font-style="normal" font-weight="normal" style="cursor: move;" visibility="visible" x="3" y="3">
<tspan dy="1em" x="3">Raster</tspan>
</text>
<ellipse cx="3" cy="3" fill="rgb(224,229,239)" height="6" rx="3" ry="3" stroke="rgb(2,59,185)" stroke-width="1px" style="cursor: default;" visibility="hidden" width="6"/>
<g focusable="true" height="9" preserveAspectRatio="none" transform="translate(0,3) scale(0,0.09)" width="0"/>
</g>
<g focusable="true" height="100" preserveAspectRatio="none" transform="translate(-282,122) scale(1,1)" visibility="visible" width="100">
<rect fill="rgb(252,235,192)" fill-opacity="0" height="21" rx="3.15" ry="3.15" stroke="rgb(241,163,39)" stroke-opacity="0" stroke-width="1px" width="50" x="-2" y="-3"/>
<line stroke="#495879" stroke-opacity="1" stroke-width="1px" style="cursor: move;" x1="0" x2="46" y1="15" y2="15"/>
<text fill="rgb(82,92,97)" font-family="verdana" font-size="8.0625" font-style="normal" font-weight="normal" style="cursor: move;" visibility="visible" x="3" y="3">
<tspan dy="1em" x="3">Vectorial</tspan>
</text>
<ellipse cx="-3" cy="15" fill="rgb(224,229,239)" height="6" rx="3" ry="3" stroke="rgb(2,59,185)" stroke-width="1px" style="cursor: default;" visibility="visible" width="6"/>
<g focusable="true" height="9" preserveAspectRatio="none" transform="translate(0,3) scale(0,0.09)" width="0"/>
</g>
<g focusable="true" height="100" preserveAspectRatio="none" transform="translate(-342,84) scale(1,1)" visibility="visible" width="100">
<rect fill="rgb(252,235,192)" fill-opacity="0" height="21" rx="3.15" ry="3.15" stroke="rgb(241,163,39)" stroke-opacity="0" stroke-width="1px" width="34" x="-2" y="-3"/>
<line stroke="#495879" stroke-opacity="1" stroke-width="1px" style="cursor: move;" x1="0" x2="30" y1="15" y2="15"/>
<text fill="rgb(82,92,97)" font-family="verdana" font-size="8.0625" font-style="normal" font-weight="normal" style="cursor: move;" visibility="visible" x="3" y="3">
<tspan dy="1em" x="3">Local</tspan>
</text>
<ellipse cx="3" cy="3" fill="rgb(224,229,239)" height="6" rx="3" ry="3" stroke="rgb(2,59,185)" stroke-width="1px" style="cursor: default;" visibility="hidden" width="6"/>
<g focusable="true" height="9" preserveAspectRatio="none" transform="translate(0,3) scale(0,0.09)" width="0"/>
</g>
<g focusable="true" height="100" preserveAspectRatio="none" transform="translate(-342,109) scale(1,1)" visibility="visible" width="100">
<rect fill="rgb(252,235,192)" fill-opacity="0" height="21" rx="3.15" ry="3.15" stroke="rgb(241,163,39)" stroke-opacity="0" stroke-width="1px" width="34" x="-2" y="-3"/>
<line stroke="#495879" stroke-opacity="1" stroke-width="1px" style="cursor: move;" x1="0" x2="30" y1="15" y2="15"/>
<text fill="rgb(82,92,97)" font-family="verdana" font-size="8.0625" font-style="normal" font-weight="normal" style="cursor: move;" visibility="visible" x="3" y="3">
<tspan dy="1em" x="3">Focal</tspan>
</text>
<ellipse cx="3" cy="3" fill="rgb(224,229,239)" height="6" rx="3" ry="3" stroke="rgb(2,59,185)" stroke-width="1px" style="cursor: default;" visibility="hidden" width="6"/>
<g focusable="true" height="9" preserveAspectRatio="none" transform="translate(0,3) scale(0,0.09)" width="0"/>
</g>
<g focusable="true" height="100" preserveAspectRatio="none" transform="translate(-344,134) scale(1,1)" visibility="visible" width="100">
<rect fill="rgb(252,235,192)" fill-opacity="0" height="21" rx="3.15" ry="3.15" stroke="rgb(241,163,39)" stroke-opacity="0" stroke-width="1px" width="36" x="-2" y="-3"/>
<line stroke="#495879" stroke-opacity="1" stroke-width="1px" style="cursor: move;" x1="0" x2="32" y1="15" y2="15"/>
<text fill="rgb(82,92,97)" font-family="verdana" font-size="8.0625" font-style="normal" font-weight="normal" style="cursor: move;" visibility="visible" x="3" y="3">
<tspan dy="1em" x="3">Zonal</tspan>
</text>
<ellipse cx="3" cy="3" fill="rgb(224,229,239)" height="6" rx="3" ry="3" stroke="rgb(2,59,185)" stroke-width="1px" style="cursor: default;" visibility="hidden" width="6"/>
<g focusable="true" height="9" preserveAspectRatio="none" transform="translate(0,3) scale(0,0.09)" width="0"/>
</g>
<g focusable="true" height="100" preserveAspectRatio="none" transform="translate(-347,159) scale(1,1)" visibility="visible" width="100">
<rect fill="rgb(252,235,192)" fill-opacity="0" height="21" rx="3.15" ry="3.15" stroke="rgb(241,163,39)" stroke-opacity="0" stroke-width="1px" width="39" x="-2" y="-3"/>
<line stroke="#495879" stroke-opacity="1" stroke-width="1px" style="cursor: move;" x1="0" x2="35" y1="15" y2="15"/>
<text fill="rgb(82,92,97)" font-family="verdana" font-size="8.0625" font-style="normal" font-weight="normal" style="cursor: move;" visibility="visible" x="3" y="3">
<tspan dy="1em" x="3">Global</tspan>
</text>
<ellipse cx="3" cy="3" fill="rgb(224,229,239)" height="6" rx="3" ry="3" stroke="rgb(2,59,185)" stroke-width="1px" style="cursor: default;" visibility="hidden" width="6"/>
<g focusable="true" height="9" preserveAspectRatio="none" transform="translate(0,3) scale(0,0.09)" width="0"/>
</g>
</svg>
